<svg width="48" height="48" viewBox="0 0 48 48" fill="none" xmlns="http://www.w3.org/2000/svg">
<rect width="48" height="48" rx="24" fill="#1B8354"/>
<path d="M20.9101 32.67C20.7201 32.67 20.5301 32.6 20.3801 32.45C20.0901 32.16 20.0901 31.68 20.3801 31.39L26.9001 24.87C27.3801 24.39 27.3801 23.61 26.9001 23.13L20.3801 16.61C20.0901 16.32 20.0901 15.84 20.3801 15.55C20.6701 15.26 21.1501 15.26 21.4401 15.55L27.9601 22.07C28.4701 22.58 28.7601 23.27 28.7601 24C28.7601 24.73 28.4801 25.42 27.9601 25.93L21.4401 32.45C21.2901 32.59 21.1001 32.67 20.9101 32.67Z" fill="white"/>
</svg>
