<svg width="22" height="22" viewBox="0 0 22 22" fill="none" xmlns="http://www.w3.org/2000/svg">
<path d="M8.53036 7.4697C8.23748 7.17679 7.76261 7.17676 7.4697 7.46964C7.17679 7.76252 7.17676 8.23739 7.46964 8.5303L9.9394 11.0003L7.47028 13.4697C7.1774 13.7626 7.17743 14.2375 7.47034 14.5304C7.76325 14.8232 8.23812 14.8232 8.531 14.5303L11 12.061L13.469 14.5303C13.7619 14.8232 14.2368 14.8232 14.5297 14.5304C14.8226 14.2375 14.8226 13.7626 14.5297 13.4697L12.0606 11.0003L14.5304 8.5303C14.8232 8.23739 14.8232 7.76252 14.5303 7.46964C14.2374 7.17676 13.7625 7.17679 13.4696 7.4697L11 9.9396L8.53036 7.4697Z" fill="#161616"/>
<path fill-rule="evenodd" clip-rule="evenodd" d="M11 21.75C5.06294 21.75 0.25 16.9371 0.25 11C0.25 5.06294 5.06294 0.25 11 0.25C16.9371 0.25 21.75 5.06294 21.75 11C21.75 16.9371 16.9371 21.75 11 21.75ZM1.75 11C1.75 16.1086 5.89137 20.25 11 20.25C16.1086 20.25 20.25 16.1086 20.25 11C20.25 5.89137 16.1086 1.75 11 1.75C5.89137 1.75 1.75 5.89137 1.75 11Z" fill="#161616"/>
</svg>
