<svg width="18" height="18" viewBox="0 0 18 18" fill="none" xmlns="http://www.w3.org/2000/svg">
<path fill-rule="evenodd" clip-rule="evenodd" d="M6.95742 0.0416262H6.8759C5.54068 0.0416161 4.48288 0.041608 3.64603 0.140526C2.78689 0.24208 2.07964 0.455278 1.48885 0.940126C1.28842 1.10461 1.10464 1.28839 0.940158 1.48882C0.45531 2.07961 0.242111 2.78686 0.140557 3.646C0.0416389 4.48285 0.0416468 5.54065 0.0416567 6.87587V6.95739C0.0416466 8.2926 0.0416385 9.3504 0.140557 10.1873C0.24211 11.0464 0.455309 11.7536 0.940157 12.3444C1.10464 12.5449 1.28842 12.7286 1.48885 12.8931C2.04874 13.3526 2.71323 13.5681 3.51285 13.6759C4.16191 13.7634 4.94319 13.7846 5.88391 13.7898C5.89477 14.3082 5.91882 14.7635 5.97209 15.1598C6.07294 15.9098 6.28868 16.5414 6.79028 17.043C7.29188 17.5446 7.92344 17.7603 8.67353 17.8612C9.396 17.9583 10.3146 17.9583 11.4543 17.9583H12.379C13.5187 17.9583 14.4373 17.9583 15.1598 17.8612C15.9099 17.7603 16.5414 17.5446 17.043 17.043C17.5446 16.5414 17.7604 15.9098 17.8612 15.1598C17.9584 14.4373 17.9583 13.5187 17.9583 12.379V11.4542C17.9583 10.3146 17.9584 9.39597 17.8612 8.6735C17.7604 7.92341 17.5446 7.29185 17.043 6.79025C16.5414 6.28866 15.9099 6.07291 15.1598 5.97206C14.7635 5.91879 14.3083 5.89474 13.7899 5.88388C13.7846 4.94316 13.7634 4.16188 13.6759 3.51282C13.5682 2.7132 13.3526 2.04871 12.8932 1.48882C12.7287 1.28839 12.5449 1.10461 12.3445 0.940127C11.7537 0.455279 11.0464 0.24208 10.1873 0.140527C9.35043 0.0416084 8.29264 0.0416163 6.95742 0.0416262ZM12.5397 5.87497C12.5342 4.94982 12.5134 4.24566 12.4371 3.67976C12.3464 3.00662 12.1847 2.59591 11.9269 2.28181C11.8144 2.14468 11.6886 2.01893 11.5515 1.90639C11.2203 1.63461 10.7817 1.46949 10.0406 1.38188C9.28562 1.29265 8.30175 1.29163 6.91666 1.29163C5.53156 1.29163 4.54769 1.29265 3.79277 1.38188C3.05163 1.46949 2.61301 1.63461 2.28184 1.90639C2.14471 2.01893 2.01896 2.14468 1.90642 2.28181C1.63464 2.61298 1.46952 3.0516 1.38192 3.79273C1.29268 4.54766 1.29166 5.53153 1.29166 6.91663C1.29166 8.30172 1.29268 9.28559 1.38191 10.0405C1.46952 10.7816 1.63464 11.2203 1.90642 11.5514C2.01896 11.6886 2.14471 11.8143 2.28184 11.9269C2.59594 12.1846 3.00664 12.3464 3.67979 12.4371C4.24569 12.5134 4.94985 12.5342 5.875 12.5397C5.87499 12.4866 5.87499 12.4331 5.87499 12.379V11.4542C5.87497 10.3146 5.87496 9.39597 5.97209 8.6735C6.07294 7.92341 6.28869 7.29185 6.79028 6.79025C7.29188 6.28865 7.92344 6.07291 8.67353 5.97206C9.396 5.87493 10.3146 5.87494 11.4543 5.87496H12.3791C12.4331 5.87496 12.4867 5.87496 12.5397 5.87497ZM7.67417 7.67413C7.9048 7.4435 8.22861 7.29313 8.84009 7.21092C9.46955 7.12629 10.3038 7.12496 11.5 7.12496H12.3333C13.5295 7.12496 14.3638 7.12629 14.9932 7.21092C15.6047 7.29313 15.9285 7.4435 16.1591 7.67414C16.3898 7.90477 16.5402 8.22858 16.6224 8.84006C16.707 9.46952 16.7083 10.3038 16.7083 11.5V12.3333C16.7083 13.5295 16.707 14.3637 16.6224 14.9932C16.5402 15.6047 16.3898 15.9285 16.1591 16.1591C15.9285 16.3898 15.6047 16.5401 14.9932 16.6223C14.3638 16.707 13.5295 16.7083 12.3333 16.7083H11.5C10.3038 16.7083 9.46955 16.707 8.84009 16.6223C8.22861 16.5401 7.9048 16.3898 7.67416 16.1591C7.44353 15.9285 7.29316 15.6047 7.21095 14.9932C7.12632 14.3637 7.12499 13.5295 7.12499 12.3333V11.5C7.12499 10.3038 7.12632 9.46952 7.21095 8.84006C7.29316 8.22858 7.44353 7.90477 7.67417 7.67413Z" fill="#54C08A"/>
</svg>
