<svg width="16" height="16" viewBox="0 0 16 16" fill="none" xmlns="http://www.w3.org/2000/svg">
<path d="M14.2229 1.83133C12.7843 0.334054 10.441 0.334056 9.00238 1.83133L8.40778 2.45016C8.16862 2.69907 8.17652 3.09471 8.42542 3.33387C8.67433 3.57303 9.06997 3.56513 9.30913 3.31622L9.90373 2.69739C10.8505 1.71204 12.3748 1.71204 13.3216 2.69739C14.2818 3.6968 14.2818 5.32711 13.3216 6.32653L10.6221 9.13602C10.4723 9.29188 10.3092 9.42216 10.1375 9.52772C9.21407 10.0953 8.00468 9.96908 7.20424 9.13602C7.07404 9.00051 6.96162 8.85368 6.86685 8.69847C6.68696 8.40388 6.30231 8.31089 6.00772 8.49078C5.71312 8.67066 5.62013 9.05531 5.80002 9.34991C5.94129 9.58127 6.10896 9.80026 6.30289 10.0021C7.51498 11.2636 9.37308 11.4648 10.792 10.5926C11.0543 10.4315 11.3003 10.2343 11.5234 10.0021L14.2229 7.19259C15.6481 5.70937 15.648 3.31455 14.2229 1.83133Z" fill="#54C08A"/>
<path d="M9.6973 5.99799C8.25864 4.50072 5.91538 4.50072 4.47673 5.99799L1.77721 8.80749C0.352055 10.2907 0.352055 12.6855 1.77721 14.1688C3.21587 15.666 5.55913 15.666 6.99779 14.1688L7.5926 13.5497C7.83176 13.3008 7.82386 12.9052 7.57496 12.666C7.32606 12.4268 6.93041 12.4347 6.69125 12.6836L6.09644 13.3027C5.14965 14.288 3.62534 14.288 2.67856 13.3027C1.71827 12.3033 1.71827 10.673 2.67856 9.67356L5.37808 6.86406C6.32486 5.8787 7.84917 5.8787 8.79595 6.86406C8.92613 6.99954 9.03852 7.14633 9.13328 7.30149C9.31319 7.59608 9.69784 7.68905 9.99243 7.50914C10.287 7.32923 10.38 6.94458 10.2001 6.64999C10.0588 6.4187 9.89118 6.19977 9.6973 5.99799Z" fill="#54C08A"/>
</svg>
