<svg width="16" height="14" viewBox="0 0 16 14" fill="none" xmlns="http://www.w3.org/2000/svg">
<path d="M7.33337 10.3333C7.33337 9.9651 7.63185 9.66663 8.00004 9.66663H8.00603C8.37422 9.66663 8.6727 9.9651 8.6727 10.3333C8.6727 10.7015 8.37422 11 8.00603 11H8.00004C7.63185 11 7.33337 10.7015 7.33337 10.3333Z" fill="#161616"/>
<path fill-rule="evenodd" clip-rule="evenodd" d="M2.16671 5.89362L1.67943 6.36086C1.48011 6.55198 1.1636 6.54533 0.972478 6.34601C0.781357 6.14669 0.788003 5.83018 0.987321 5.63906L3.90947 2.8371C4.77569 2.00649 5.46219 1.34821 6.07165 0.902336C6.6997 0.442862 7.30081 0.166626 8.00004 0.166626C8.69927 0.166626 9.30039 0.442862 9.92843 0.902336C10.5379 1.34822 11.2244 2.0065 12.0906 2.8371L15.0128 5.63906C15.2121 5.83018 15.2187 6.14669 15.0276 6.34601C14.8365 6.54533 14.52 6.55198 14.3207 6.36086L13.8334 5.89362V8.03757C13.8334 9.26273 13.8334 10.2332 13.7313 10.9926C13.6262 11.7743 13.4048 12.4069 12.9059 12.9058C12.407 13.4047 11.7743 13.6261 10.9927 13.7312C10.2333 13.8333 9.26284 13.8333 8.03768 13.8333H7.96243C6.73727 13.8333 5.76683 13.8333 5.00736 13.7312C4.22574 13.6261 3.59311 13.4047 3.0942 12.9058C2.59529 12.4069 2.37388 11.7743 2.2688 10.9926C2.16669 10.2332 2.1667 9.26274 2.16671 8.03757L2.16671 5.89362ZM4.57486 3.58451C5.4738 2.72255 6.11279 2.11129 6.6621 1.70941C7.19909 1.31655 7.5947 1.16663 8.00004 1.16663C8.40538 1.16663 8.801 1.31655 9.33798 1.70941C9.8873 2.11129 10.5263 2.72255 11.4252 3.58451L12.8334 4.93475V7.99996C12.8334 9.27117 12.8323 10.1743 12.7402 10.8594C12.65 11.5301 12.4809 11.9166 12.1988 12.1987C11.9166 12.4808 11.5302 12.6499 10.8595 12.7401C10.1744 12.8322 9.27126 12.8333 8.00004 12.8333C6.72883 12.8333 5.82572 12.8322 5.14061 12.7401C4.46988 12.6499 4.08345 12.4808 3.80131 12.1987C3.51917 11.9166 3.35006 11.5301 3.25988 10.8594C3.16777 10.1743 3.16671 9.27117 3.16671 7.99996V4.93475L4.57486 3.58451Z" fill="#161616"/>
</svg>
