<svg width="20" height="20" viewBox="0 0 20 20" fill="none" xmlns="http://www.w3.org/2000/svg">
<path fill-rule="evenodd" clip-rule="evenodd" d="M10 13.9584C12.6464 13.9584 14.7917 11.8131 14.7917 9.16675V5.83342C14.7917 3.18705 12.6464 1.04175 10 1.04175C7.35368 1.04175 5.20837 3.18705 5.20837 5.83342V9.16675C5.20837 11.8131 7.35368 13.9584 10 13.9584ZM10 2.29175C8.04403 2.29175 6.45837 3.87741 6.45837 5.83342V9.16675C6.45837 11.1228 8.04403 12.7084 10 12.7084C11.7428 12.7084 13.1915 11.4497 13.4867 9.79175H11.6667C11.3215 9.79175 11.0417 9.51193 11.0417 9.16675C11.0417 8.82157 11.3215 8.54175 11.6667 8.54175H13.5417V6.45842H11.6667C11.3215 6.45842 11.0417 6.17859 11.0417 5.83342C11.0417 5.48824 11.3215 5.20842 11.6667 5.20842H13.4867C13.1915 3.55049 11.7428 2.29175 10 2.29175Z" fill="#161616"/>
<path d="M3.95837 9.16675C3.95837 8.82157 3.67855 8.54175 3.33337 8.54175C2.9882 8.54175 2.70837 8.82157 2.70837 9.16675C2.70837 12.9833 5.64054 16.115 9.37504 16.432V17.7084H7.50004C7.15486 17.7084 6.87504 17.9882 6.87504 18.3334C6.87504 18.6786 7.15486 18.9584 7.50004 18.9584H12.5C12.8452 18.9584 13.125 18.6786 13.125 18.3334C13.125 17.9882 12.8452 17.7084 12.5 17.7084H10.625V16.432C14.3595 16.115 17.2917 12.9833 17.2917 9.16675C17.2917 8.82157 17.0119 8.54175 16.6667 8.54175C16.3215 8.54175 16.0417 8.82157 16.0417 9.16675C16.0417 12.5035 13.3368 15.2084 10 15.2084C6.66332 15.2084 3.95837 12.5035 3.95837 9.16675Z" fill="#161616"/>
</svg>
