<svg width="14" height="14" viewBox="0 0 14 14" fill="none" xmlns="http://www.w3.org/2000/svg">
<path fill-rule="evenodd" clip-rule="evenodd" d="M7 0.4375C7.31066 0.4375 7.5625 0.68934 7.5625 1L7.5625 6.4375L13 6.4375C13.3107 6.4375 13.5625 6.68934 13.5625 7C13.5625 7.31066 13.3107 7.5625 13 7.5625L7.5625 7.5625L7.5625 13C7.5625 13.3107 7.31066 13.5625 7 13.5625C6.68934 13.5625 6.4375 13.3107 6.4375 13L6.4375 7.5625L1 7.5625C0.68934 7.5625 0.4375 7.31066 0.4375 7C0.4375 6.68934 0.68934 6.4375 1 6.4375L6.4375 6.4375L6.4375 1C6.4375 0.68934 6.68934 0.4375 7 0.4375Z" fill="#161616"/>
</svg>
