<svg width="18" height="18" viewBox="0 0 18 18" fill="none" xmlns="http://www.w3.org/2000/svg">
<path fill-rule="evenodd" clip-rule="evenodd" d="M8.1665 0.041748C3.67919 0.041748 0.0415039 3.67943 0.0415039 8.16675C0.0415039 12.6541 3.67919 16.2917 8.1665 16.2917C10.1852 16.2917 12.0319 15.5556 13.4529 14.337L16.8912 17.7754C17.1353 18.0194 17.531 18.0194 17.7751 17.7754C18.0192 17.5313 18.0192 17.1356 17.7751 16.8915L14.3368 13.4531C15.5553 12.0322 16.2915 10.1854 16.2915 8.16675C16.2915 3.67943 12.6538 0.041748 8.1665 0.041748ZM1.2915 8.16675C1.2915 4.36979 4.36955 1.29175 8.1665 1.29175C11.9635 1.29175 15.0415 4.36979 15.0415 8.16675C15.0415 11.9637 11.9635 15.0417 8.1665 15.0417C4.36955 15.0417 1.2915 11.9637 1.2915 8.16675Z" fill="#161616"/>
</svg>
