<svg width="20" height="20" viewBox="0 0 20 20" fill="none" xmlns="http://www.w3.org/2000/svg">
<path fill-rule="evenodd" clip-rule="evenodd" d="M10.0001 13.125C8.27419 13.125 6.87508 11.7259 6.87508 9.99999C6.87508 8.2741 8.27419 6.87499 10.0001 6.87499C11.726 6.87499 13.1251 8.2741 13.1251 9.99999C13.1251 11.7259 11.726 13.125 10.0001 13.125ZM8.12508 9.99999C8.12508 11.0355 8.96455 11.875 10.0001 11.875C11.0356 11.875 11.8751 11.0355 11.8751 9.99999C11.8751 8.96446 11.0356 8.12499 10.0001 8.12499C8.96455 8.12499 8.12508 8.96446 8.12508 9.99999Z" fill="white"/>
<path fill-rule="evenodd" clip-rule="evenodd" d="M10.0001 3.54166C7.85795 3.54166 6.02171 4.4845 4.60034 5.59414C3.17769 6.70479 2.12613 8.01644 1.53792 8.84126L1.49357 8.9031C1.28261 9.1965 1.04175 9.53149 1.04175 9.99999C1.04175 10.4685 1.28261 10.8035 1.49357 11.0969L1.53792 11.1587C2.12614 11.9835 3.17769 13.2952 4.60034 14.4058C6.02171 15.5155 7.85795 16.4583 10.0001 16.4583C12.1422 16.4583 13.9785 15.5155 15.3998 14.4058C16.8225 13.2952 17.874 11.9835 18.4622 11.1587L18.5066 11.0969C18.7176 10.8035 18.9584 10.4685 18.9584 9.99999C18.9584 9.53148 18.7176 9.1965 18.5066 8.9031L18.4622 8.84126C17.874 8.01644 16.8225 6.70479 15.3998 5.59414C13.9785 4.4845 12.1422 3.54166 10.0001 3.54166ZM2.55564 9.56703C3.10581 8.79556 4.07706 7.58847 5.36955 6.57944C6.66331 5.56942 8.23453 4.79166 10.0001 4.79166C11.7656 4.79166 13.3369 5.56942 14.6306 6.57944C15.9231 7.58847 16.8944 8.79556 17.4445 9.56703C17.5806 9.75788 17.6454 9.85107 17.684 9.92526C17.7086 9.97242 17.7085 9.98534 17.7084 9.998L17.7084 9.99999L17.7084 10.002C17.7085 10.0146 17.7086 10.0276 17.684 10.0747C17.6454 10.1489 17.5806 10.2421 17.4445 10.4329C16.8944 11.2044 15.9231 12.4115 14.6306 13.4205C13.3369 14.4306 11.7656 15.2083 10.0001 15.2083C8.23453 15.2083 6.66331 14.4306 5.36955 13.4205C4.07706 12.4115 3.10581 11.2044 2.55564 10.4329C2.41954 10.2421 2.35476 10.1489 2.31615 10.0747C2.2916 10.0276 2.29167 10.0146 2.29174 10.002L2.29175 9.99999L2.29174 9.998C2.29167 9.98534 2.2916 9.97242 2.31615 9.92526C2.35476 9.85107 2.41954 9.75788 2.55564 9.56703Z" fill="white"/>
</svg>
