<svg width="56" height="56" viewBox="0 0 56 56" fill="none" xmlns="http://www.w3.org/2000/svg">
<path d="M0 28C0 12.536 12.536 0 28 0C43.464 0 56 12.536 56 28C56 43.464 43.464 56 28 56C12.536 56 0 43.464 0 28Z" fill="#F3FCF6"/>
<path fill-rule="evenodd" clip-rule="evenodd" d="M27.2407 16.2404C28.3286 15.1975 30.0056 15.1975 31.0934 16.2404C31.8106 16.9278 32.6989 17.8841 33.4133 18.9902C34.1213 20.0864 34.7087 21.4071 34.7087 22.8048C34.7087 25.4967 32.6122 28.2916 29.1671 28.2916C25.722 28.2916 23.6254 25.4967 23.6254 22.8048C23.6254 21.4071 24.2128 20.0864 24.9208 18.9902C25.6352 17.8841 26.5236 16.9278 27.2407 16.2404ZM29.8824 17.5037C29.4715 17.1098 28.8626 17.1098 28.4517 17.5037C27.7889 18.139 27.0044 18.9897 26.3909 19.9397C25.771 20.8995 25.3754 21.8839 25.3754 22.8048C25.3754 24.6598 26.8132 26.5416 29.1671 26.5416C31.521 26.5416 32.9587 24.6598 32.9587 22.8048C32.9587 21.8839 32.5632 20.8995 31.9433 19.9397C31.3297 18.9897 30.5452 18.139 29.8824 17.5037Z" fill="#067647"/>
<path d="M17.7921 30.3333C17.7921 29.85 18.1838 29.4583 18.6671 29.4583H21.461C21.9353 29.4583 22.4042 29.565 22.8307 29.7714L25.213 30.9241C25.4003 31.0147 25.6084 31.0626 25.8205 31.0626H27.0369C28.0138 31.0626 28.8977 31.5238 29.4501 32.2475L34.2647 30.7682L34.2665 30.7677C35.5854 30.3576 36.9977 30.8509 37.8061 31.9703C38.5311 32.9744 38.2509 34.4228 37.1622 35.051L28.394 40.1101C27.6299 40.551 26.724 40.6601 25.8788 40.4093L18.4178 38.1953C17.9545 38.0579 17.6904 37.5709 17.8279 37.1076C17.9654 36.6443 18.4524 36.3802 18.9156 36.5176L26.3767 38.7316C26.7583 38.8448 27.1683 38.7969 27.5195 38.5943L36.2876 33.5352C36.4525 33.4401 36.5227 33.1823 36.3873 32.9948C36.006 32.4668 35.3656 32.2582 34.7852 32.439L34.7819 32.44L30.0403 33.8969C30.0415 33.9307 30.0421 33.9647 30.0421 33.9989C30.0421 34.4552 29.7314 34.8284 29.323 34.9414L26.3586 35.761C25.623 35.9643 24.8352 35.894 24.1485 35.5617L21.6018 34.3295C21.1668 34.1191 20.9847 33.5958 21.1952 33.1608C21.4057 32.7258 21.929 32.5438 22.364 32.7542L24.9107 33.9864C25.2133 34.1329 25.5643 34.1649 25.8923 34.0743L28.1489 33.4503C27.9434 33.0787 27.5345 32.8126 27.0369 32.8126H25.8205C25.3462 32.8126 24.8774 32.7058 24.4508 32.4994L22.0685 31.3467C21.8812 31.2561 21.6731 31.2083 21.461 31.2083H18.6671C18.1838 31.2083 17.7921 30.8165 17.7921 30.3333Z" fill="#067647"/>
</svg>
