<svg width="86" height="68" viewBox="0 0 86 68" fill="none" xmlns="http://www.w3.org/2000/svg">
<rect width="85" height="68" transform="translate(0.699997)" fill="white"/>
<path d="M59.1773 25.4111C58.8042 25.1856 58.1241 24.8055 57.1854 24.4898C55.8314 24.0259 53.9418 23.678 51.7031 24.0581C50.9509 24.187 50.1566 24.3996 49.3321 24.7153C49.2539 24.7475 49.1757 24.7733 49.0974 24.8055C48.6762 24.973 48.261 25.1792 47.8397 25.4047C47.4787 25.598 47.1236 25.8106 46.7686 26.0425C45.9562 26.5644 45.1558 27.1572 44.3795 27.8014C43.4949 22.0737 43.9282 16.7583 44.1328 14.1489C44.1328 14.136 44.1508 14.1296 44.1628 14.136C46.0584 15.4117 45.5289 18.9747 45.1257 19.9991C45.1197 20.0184 45.1437 20.0313 45.1618 20.0184C47.5208 17.0353 46.3714 13.7366 45.8839 12.9054C45.8719 12.8861 45.896 12.8668 45.914 12.8797C46.257 13.176 46.5339 13.4917 46.7686 13.8139C47.4967 14.8125 47.7675 15.8885 47.8397 16.8421C47.8758 17.3446 47.8638 17.8085 47.8397 18.208C47.8337 18.3175 47.8277 18.4141 47.8156 18.5108C47.8156 18.5237 47.8277 18.5301 47.8397 18.5237C47.8457 18.5237 47.8518 18.5237 47.8518 18.5172C48.4896 17.1771 48.7966 15.154 47.8397 13.1889C47.581 12.6542 47.2319 12.1258 46.7686 11.6169C46.6362 11.4687 46.4917 11.3269 46.3413 11.1787C46.3292 11.1659 46.3413 11.1401 46.3593 11.1465C46.5038 11.1852 46.6362 11.2303 46.7686 11.2754C47.1718 11.4236 47.5268 11.6297 47.8397 11.881C48.5558 12.448 49.0433 13.2211 49.3321 14.0329C49.5728 14.703 49.6812 15.3924 49.6812 16.0045C49.6812 16.0302 49.7113 16.0303 49.7173 16.0109C50.1626 14.2649 49.8918 12.9441 49.3321 11.9841C48.935 11.2947 48.3873 10.7922 47.8397 10.4378C47.4666 10.1994 47.0935 10.0319 46.7686 9.92882C46.576 9.86439 46.4075 9.82573 46.257 9.8064C46.233 9.8064 46.239 9.76775 46.263 9.76775C46.4376 9.74842 46.6061 9.74197 46.7686 9.73553C47.1657 9.72909 47.5208 9.76775 47.8397 9.82573C48.4716 9.95459 48.965 10.1865 49.3321 10.4571C49.9339 10.8888 50.2348 11.3978 50.3371 11.604C50.3431 11.6233 50.3732 11.6104 50.3732 11.5911C50.289 10.6698 49.8918 9.94815 49.3382 9.43271C48.9109 9.03325 48.3873 8.75621 47.8457 8.58869C47.4907 8.48561 47.1296 8.42763 46.7746 8.42118C46.2931 8.41474 45.8298 8.49849 45.4386 8.67889C45.4206 8.68534 45.4085 8.66601 45.4146 8.64668C45.7636 8.11192 46.257 7.78978 46.7746 7.61582C47.1356 7.49985 47.5027 7.45474 47.8457 7.48051C48.1767 7.49984 48.4776 7.57715 48.7243 7.69957C48.7424 7.70601 48.7544 7.68669 48.7424 7.66736C48.4716 7.33878 48.1647 7.08105 47.8457 6.88777C47.5027 6.68159 47.1416 6.55918 46.7746 6.51408C45.8177 6.39811 44.8429 6.83623 44.1929 7.88642C44.1869 7.89931 44.1689 7.89931 44.1628 7.88642C44.0365 7.64803 43.9161 7.38387 43.8078 7.10682C43.549 6.46253 43.3384 5.74093 43.2241 5.01933C43.218 4.99356 43.194 4.99356 43.194 5.01933C43.0796 5.74093 42.863 6.46898 42.6042 7.11327C42.4899 7.39032 42.3756 7.64804 42.2492 7.87998C42.2432 7.89287 42.2251 7.89287 42.2191 7.87998C41.0877 6.04375 38.9635 6.08241 37.6696 7.66736C37.6576 7.68025 37.6696 7.70601 37.6877 7.69957C38.5482 7.26145 40.1791 7.39031 40.9975 8.64668C41.0095 8.66601 40.9915 8.68534 40.9734 8.67889C39.7157 8.11192 37.7659 8.47916 36.7248 9.8064C36.3517 10.2767 36.099 10.8759 36.0328 11.5911C36.0328 11.6104 36.0569 11.6233 36.0689 11.604C36.1471 11.4429 36.3517 11.095 36.7248 10.7406C37.3326 10.1672 38.3918 9.58735 40.143 9.76131C40.167 9.76775 40.167 9.79996 40.149 9.79996C39.2523 9.91594 37.4048 10.7728 36.7248 12.7315C36.4239 13.5948 36.3457 14.6772 36.6827 16.0045C36.6887 16.0238 36.7188 16.0238 36.7188 15.998C36.7188 15.9658 36.7188 15.9401 36.7248 15.9078C36.7429 14.1296 37.6937 11.7457 40.0467 11.1401C40.0647 11.1336 40.0768 11.1594 40.0647 11.1723C37.4349 13.6464 37.6937 16.7003 38.5543 18.5043C38.5663 18.5237 38.5904 18.5172 38.5904 18.4979C38.476 17.132 38.3858 14.703 40.492 12.8668C40.51 12.8539 40.5341 12.8732 40.5221 12.8926C40.0346 13.7301 38.8852 17.0225 41.2442 20.0055C41.2562 20.0249 41.2863 20.012 41.2803 19.9862C40.8831 18.9682 40.3536 15.3988 42.2432 14.1231C42.2552 14.1167 42.2733 14.1232 42.2733 14.136C42.4779 16.7454 42.9111 22.0608 42.0265 27.7886C40.504 26.5386 38.8973 25.4433 37.3086 24.799C37.11 24.7217 36.9174 24.6509 36.7309 24.58C35.088 24.0001 33.5835 23.8391 32.2717 23.9035C30.1654 24.0001 28.5527 24.6766 27.6681 25.147C27.4875 25.2436 27.3371 25.3338 27.2227 25.4047C27.1746 25.4369 27.2107 25.5078 27.2588 25.4884C27.3972 25.4433 27.5296 25.3982 27.6681 25.3596C29.2868 24.8699 30.8214 24.7411 32.2717 24.8764C33.8543 25.0245 35.3407 25.4884 36.7309 26.1585C38.6806 27.0992 40.4438 28.4393 42.0386 29.8567C39.7879 31.9571 37.8863 33.9995 36.7309 34.7147C36.6707 34.7469 36.6165 34.7856 36.5624 34.8178C36.2855 34.4119 35.8041 34.1799 35.2806 34.3023C34.8232 34.4119 34.4501 34.8049 34.3478 35.2881C34.2575 35.7198 34.3598 36.1901 34.5885 36.4349C35.2023 37.0921 35.9124 37.1372 36.7309 36.77C38.2895 36.0677 40.2272 33.8642 42.6042 31.5319C42.8028 31.3386 43.0014 31.1389 43.206 30.9456C43.4106 31.1389 43.6092 31.3322 43.8078 31.5254C44.885 32.5821 45.8719 33.6129 46.7746 34.4892C47.1477 34.85 47.5027 35.185 47.8457 35.4814C48.3753 35.9453 48.8748 36.3254 49.3382 36.5896C50.2468 37.105 51.0352 37.1694 51.7092 36.5316C51.7453 36.4994 51.7814 36.4672 51.8175 36.4285C51.9739 36.261 52.1545 35.7133 52.0582 35.2817C52.004 35.0304 51.8777 34.8049 51.7031 34.6309C51.5467 34.4698 51.3421 34.3474 51.1254 34.2959C50.6019 34.1735 50.1205 34.4054 49.8436 34.8113C49.6872 34.7276 49.5187 34.6116 49.3321 34.4763C48.9049 34.1606 48.4054 33.716 47.8397 33.1877C47.5027 32.872 47.1477 32.5241 46.7686 32.1568C46.0344 31.4417 45.228 30.6556 44.3735 29.8503C45.1317 29.1738 45.9321 28.5166 46.7686 27.911C47.1176 27.6597 47.4726 27.4149 47.8397 27.1829C48.3272 26.8737 48.8206 26.5902 49.3321 26.326C50.0964 25.933 50.8847 25.6044 51.7031 25.3531C53.4002 24.8313 55.2236 24.6573 57.1854 24.9923C57.8233 25.1019 58.4732 25.2629 59.1412 25.482C59.1893 25.5142 59.2254 25.4433 59.1773 25.4111Z" fill="#9DA4AE"/>
<path d="M7.50597 58H6.14997V49.624H9.74997C11.286 49.624 12.186 50.62 12.186 52.144C12.186 53.668 11.286 54.664 9.74997 54.664H7.50597V58ZM7.50597 50.812V53.476H9.66597C10.35 53.476 10.758 53.104 10.758 52.432V51.856C10.758 51.184 10.35 50.812 9.66597 50.812H7.50597ZM15.7494 58H14.9094C14.0214 58 13.5774 57.508 13.5774 56.704V49.12H14.8854V56.932H15.7494V58ZM22.3033 58H21.5713C20.8873 58 20.5273 57.568 20.4433 56.956H20.3833C20.1433 57.736 19.4713 58.144 18.5593 58.144C17.2753 58.144 16.5433 57.412 16.5433 56.284C16.5433 55.048 17.4673 54.412 19.2073 54.412H20.3353V53.884C20.3353 53.128 19.9273 52.684 19.0513 52.684C18.3193 52.684 17.8753 53.044 17.5633 53.536L16.7833 52.828C17.1913 52.132 17.9233 51.616 19.1353 51.616C20.7433 51.616 21.6433 52.408 21.6433 53.8V56.932H22.3033V58ZM18.9313 57.148C19.7353 57.148 20.3353 56.764 20.3353 56.152V55.252H19.2313C18.3193 55.252 17.8753 55.552 17.8753 56.092V56.308C17.8753 56.86 18.2833 57.148 18.9313 57.148ZM26.4181 58H25.2781C24.3781 58 23.8981 57.496 23.8981 56.644V52.828H22.9261V51.76H23.4541C23.8861 51.76 24.0301 51.58 24.0301 51.148V50.056H25.2061V51.76H26.5141V52.828H25.2061V56.932H26.4181V58ZM28.1866 58V52.828H27.2386V51.76H28.1866V50.728C28.1866 49.72 28.7266 49.12 29.7706 49.12H30.8026V50.188H29.4946V51.76H30.8026V52.828H29.4946V58H28.1866ZM34.3418 58.144C32.6018 58.144 31.4738 56.872 31.4738 54.88C31.4738 52.888 32.6018 51.616 34.3418 51.616C36.0818 51.616 37.2098 52.888 37.2098 54.88C37.2098 56.872 36.0818 58.144 34.3418 58.144ZM34.3418 57.064C35.2298 57.064 35.8298 56.512 35.8298 55.408V54.352C35.8298 53.248 35.2298 52.696 34.3418 52.696C33.4538 52.696 32.8538 53.248 32.8538 54.352V55.408C32.8538 56.512 33.4538 57.064 34.3418 57.064ZM39.9752 58H38.6672V51.76H39.9752V52.96H40.0352C40.2152 52.324 40.7552 51.76 41.7512 51.76H42.0992V53.02H41.5832C40.5512 53.02 39.9752 53.368 39.9752 54.016V58ZM44.569 58H43.261V51.76H44.569V52.792H44.629C44.881 52.144 45.349 51.616 46.297 51.616C47.137 51.616 47.845 52.024 48.145 52.888H48.181C48.409 52.192 49.057 51.616 50.065 51.616C51.301 51.616 52.033 52.504 52.033 54.04V58H50.725V54.196C50.725 53.236 50.365 52.744 49.573 52.744C48.913 52.744 48.301 53.092 48.301 53.812V58H46.993V54.196C46.993 53.224 46.621 52.744 45.853 52.744C45.205 52.744 44.569 53.092 44.569 53.812V58ZM61.539 58H56.775V49.624H58.131V56.8H61.539V58ZM65.1621 58.144C63.4221 58.144 62.2941 56.872 62.2941 54.88C62.2941 52.888 63.4221 51.616 65.1621 51.616C66.9021 51.616 68.0301 52.888 68.0301 54.88C68.0301 56.872 66.9021 58.144 65.1621 58.144ZM65.1621 57.064C66.0501 57.064 66.6501 56.512 66.6501 55.408V54.352C66.6501 53.248 66.0501 52.696 65.1621 52.696C64.2741 52.696 63.6741 53.248 63.6741 54.352V55.408C63.6741 56.512 64.2741 57.064 65.1621 57.064ZM74.9596 58.588C74.9596 59.884 74.0356 60.544 71.7916 60.544C69.7516 60.544 68.9596 59.992 68.9596 59.044C68.9596 58.36 69.3676 57.988 70.0276 57.844V57.712C69.5716 57.568 69.3196 57.22 69.3196 56.752C69.3196 56.104 69.8236 55.792 70.4236 55.648V55.6C69.6916 55.252 69.2836 54.592 69.2836 53.752C69.2836 52.48 70.1836 51.616 71.7676 51.616C72.1876 51.616 72.5716 51.676 72.8956 51.808V51.64C72.8956 51.088 73.1596 50.752 73.7116 50.752H74.6716V51.808H73.3996V52.06C73.9636 52.432 74.2756 53.032 74.2756 53.752C74.2756 55.012 73.3636 55.864 71.7796 55.864C71.4796 55.864 71.1916 55.828 70.9636 55.768C70.6516 55.876 70.3636 56.08 70.3636 56.392C70.3636 56.728 70.6876 56.86 71.2396 56.86H72.7756C74.3116 56.86 74.9596 57.508 74.9596 58.588ZM73.7356 58.732C73.7356 58.3 73.4476 58.024 72.5956 58.024H70.4836C70.1956 58.192 70.0516 58.444 70.0516 58.744C70.0516 59.248 70.4236 59.596 71.3956 59.596H72.2116C73.2316 59.596 73.7356 59.308 73.7356 58.732ZM71.7796 54.916C72.5476 54.916 72.9916 54.568 72.9916 53.86V53.62C72.9916 52.912 72.5476 52.564 71.7796 52.564C71.0116 52.564 70.5676 52.912 70.5676 53.62V53.86C70.5676 54.568 71.0116 54.916 71.7796 54.916ZM78.3106 58.144C76.5706 58.144 75.4426 56.872 75.4426 54.88C75.4426 52.888 76.5706 51.616 78.3106 51.616C80.0506 51.616 81.1786 52.888 81.1786 54.88C81.1786 56.872 80.0506 58.144 78.3106 58.144ZM78.3106 57.064C79.1986 57.064 79.7986 56.512 79.7986 55.408V54.352C79.7986 53.248 79.1986 52.696 78.3106 52.696C77.4226 52.696 76.8226 53.248 76.8226 54.352V55.408C76.8226 56.512 77.4226 57.064 78.3106 57.064Z" fill="#6C737F"/>
</svg>
